# xmcd
#
# Track frame offsets:
#	150
#	7392
#	23152
#	45047
#	68905
#	81970
#	94832
#	109287
#	121650
#	137770
#	152772
#	164100
#	176040
#	185515
#	207392
#	223285
#	231115
#	253837
#
# Disc length: 3605 seconds
#
# Revision: 5
# Processed by: cddbd v1.5.2PL0 Copyright (c) Steve Scherf et al.
# Submitted via: VUPlayer 2.49
#
DISCID=070e1312
DTITLE=Various Artist - Beroemde Marsen
DYEAR=1998
DGENRE=Marsen
TTITLE0=Kapel van de Koninklijke Luchtmacht, Lex van Diepen - Marching Along Tog
TTITLE0=ether
TTITLE1=Koninklijke Militaire Kapel, Maj. Pieter Jansen - Colonel Bogey
TTITLE2=Kapel van de Koninklijke Luchtmacht, Lex van Diepen - Alte Kameraden
TTITLE3=Kapel van de Koninklijke Luchtmacht, Lex van Diepen - Mars der Belgische
TTITLE3=Parachutisten
TTITLE4=Marinierskapel der Koninklijke Marine, Gert Buitenhuis - Einzug der Glad
TTITLE4=iatoren
TTITLE5=Koninklijke Militaire Kapel, Maj. Pieter Jansen - Hands Across the Sea
TTITLE6=Kapel van de Koninklijke Luchtmacht, Lex van Diepen - Vierdaagse Mars
TTITLE7=Kapel van de Koninklijke Luchtmacht, Lex van Diepen - Luchtmacht Defilee
TTITLE7=r Mars
TTITLE8=Kapel van de Koninklijke Luchtmacht, Lex van Diepen - Blaze Away
TTITLE9=Kapel van de Koninklijke Luchtmacht, Lex van Diepen - Radetzky Mars
TTITLE10=Marinierskapel der Koninklijke Marine, Jaap Koops - Froh Gelaunt
TTITLE11=Kapel van de Koninklijke Luchtmacht, Lex van Diepen - Koning Voetbal Ma
TTITLE11=rs
TTITLE12=Kapel van de Koninklijke Luchtmacht, Lex van Diepen - Manoeuvre Mars
TTITLE13=Koninklijke Militaire Kapel, Maj. Pieter Jansen - National Emblem March
TTITLE14=Koninklijke Militaire Kapel, Maj. Pieter Jansen - Eurovisie Mars
TTITLE15=Koninklijke Militaire Kapel, Jan van Ossenbruggen - Grenadiers Mars
TTITLE16=Kapel van de Koninklijke Luchtmacht, Lex van Diepen - Sambre et Meuse
TTITLE17=Koninklijke Militaire Kapel, Pierre Kuypers - Glück Auf!
EXTD=
EXTT0=
EXTT1=
EXTT2=
EXTT3=
EXTT4=
EXTT5=
EXTT6=
EXTT7=
EXTT8=
EXTT9=
EXTT10=
EXTT11=
EXTT12=
EXTT13=
EXTT14=
EXTT15=
EXTT16=
EXTT17=
PLAYORDER=
